<svg xmlns="http://www.w3.org/2000/svg" viewBox="0 0 480 480" role="img"><title>First Light — Orbits</title><defs><radialGradient id="g" cx="50%" cy="50%" r="50%"><stop offset="0%" stop-color="#4cc2ff" stop-opacity="0.9"/><stop offset="60%" stop-color="#4cc2ff" stop-opacity="0.25"/><stop offset="100%" stop-color="#4cc2ff" stop-opacity="0"/></radialGradient><radialGradient id="glow" cx="50%" cy="50%" r="50%"><stop offset="0%" stop-color="#3fdd9d" stop-opacity="0.16"/><stop offset="100%" stop-color="#3fdd9d" stop-opacity="0"/></radialGradient></defs><rect width="480" height="480" fill="#0b0d13"/><circle cx="236" cy="216.9" r="264" fill="url(#glow)"/><circle cx="240" cy="240" r="63.2" fill="none" stroke="#3fdd9d" stroke-width="1.3" stroke-opacity="0.3"/><circle cx="240" cy="240" r="89.9" fill="none" stroke="#3fdd9d" stroke-width="1.5" stroke-opacity="0.3" stroke-dasharray="111.7 43.4" stroke-linecap="round" transform="rotate(139.4 240 240)"/><circle cx="240" cy="240" r="111.2" fill="none" stroke="#4cc2ff" stroke-width="1.8" stroke-opacity="0.3"/><circle cx="240" cy="240" r="143.4" fill="none" stroke="#3fdd9d" stroke-width="1.3" stroke-opacity="0.3" stroke-dasharray="168.8 83.1" stroke-linecap="round" transform="rotate(73.5 240 240)"/><circle cx="240" cy="240" r="172.5" fill="none" stroke="#4cc2ff" stroke-width="2.3" stroke-opacity="0.3" stroke-dasharray="174.9 119.8" stroke-linecap="round" transform="rotate(61.5 240 240)"/><circle cx="240" cy="240" r="199.9" fill="none" stroke="#4cc2ff" stroke-width="1.5" stroke-opacity="0.3" stroke-dasharray="250 36.1" stroke-linecap="round" transform="rotate(55.9 240 240)"/><line x1="214.7" y1="153.7" x2="381.5" y2="216.8" stroke="#3fdd9d" stroke-opacity="0.14" stroke-width="0.8"/><line x1="96.6" y1="239.3" x2="361.5" y2="163.9" stroke="#4cc2ff" stroke-opacity="0.14" stroke-width="0.8"/><line x1="361.5" y1="163.9" x2="429.5" y2="303.7" stroke="#4cc2ff" stroke-opacity="0.14" stroke-width="0.8"/><circle cx="203.9" cy="157.7" r="6.7" fill="#3fdd9d" opacity="0.12"/><circle cx="203.9" cy="157.7" r="2.8" fill="#3fdd9d" opacity="0.9"/><circle cx="183.2" cy="309.7" r="4.1" fill="#3fdd9d" opacity="0.12"/><circle cx="183.2" cy="309.7" r="1.7" fill="#3fdd9d" opacity="0.9"/><circle cx="214.7" cy="153.7" r="5.3" fill="#3fdd9d" opacity="0.12"/><circle cx="214.7" cy="153.7" r="2.2" fill="#3fdd9d" opacity="0.9"/><circle cx="381.5" cy="216.8" r="6" fill="#3fdd9d" opacity="0.12"/><circle cx="381.5" cy="216.8" r="2.5" fill="#3fdd9d" opacity="0.9"/><circle cx="96.6" cy="239.3" r="8.6" fill="#4cc2ff" opacity="0.12"/><circle cx="96.6" cy="239.3" r="3.6" fill="#4cc2ff" opacity="0.9"/><circle cx="361.5" cy="163.9" r="6.7" fill="#4cc2ff" opacity="0.12"/><circle cx="361.5" cy="163.9" r="2.8" fill="#4cc2ff" opacity="0.9"/><circle cx="429.5" cy="303.7" r="5.3" fill="#3fdd9d" opacity="0.12"/><circle cx="429.5" cy="303.7" r="2.2" fill="#3fdd9d" opacity="0.9"/><circle cx="379.1" cy="383.6" r="5.8" fill="#4cc2ff" opacity="0.12"/><circle cx="379.1" cy="383.6" r="2.4" fill="#4cc2ff" opacity="0.9"/><circle cx="240" cy="240" r="48.9" fill="url(#g)"/><circle cx="240" cy="240" r="18.8" fill="#4cc2ff"/><circle cx="240" cy="240" r="8.5" fill="#0b0d13" opacity="0.55"/></svg>