<svg xmlns="http://www.w3.org/2000/svg" viewBox="0 0 480 480" role="img"><title>First Light — Artwork</title><defs><radialGradient id="g" cx="50%" cy="50%" r="50%"><stop offset="0%" stop-color="#f7931a" stop-opacity="0.9"/><stop offset="60%" stop-color="#f7931a" stop-opacity="0.25"/><stop offset="100%" stop-color="#f7931a" stop-opacity="0"/></radialGradient><radialGradient id="glow" cx="50%" cy="50%" r="50%"><stop offset="0%" stop-color="#4cc2ff" stop-opacity="0.16"/><stop offset="100%" stop-color="#4cc2ff" stop-opacity="0"/></radialGradient></defs><rect width="480" height="480" fill="#0b0d13"/><circle cx="221.7" cy="216.1" r="264" fill="url(#glow)"/><circle cx="240" cy="240" r="70.9" fill="none" stroke="#4cc2ff" stroke-width="0.9" stroke-opacity="0.3"/><circle cx="240" cy="240" r="119.9" fill="none" stroke="#f7931a" stroke-width="2" stroke-opacity="0.3" stroke-dasharray="140.6 94.5" stroke-linecap="round" transform="rotate(71.2 240 240)"/><circle cx="240" cy="240" r="140.2" fill="none" stroke="#4cc2ff" stroke-width="2" stroke-opacity="0.2"/><circle cx="240" cy="240" r="187.9" fill="none" stroke="#4cc2ff" stroke-width="1" stroke-opacity="0.5" stroke-dasharray="70.1 115.4" stroke-linecap="round" transform="rotate(163.8 240 240)"/><line x1="349.3" y1="190.6" x2="245.7" y2="380.1" stroke="#4cc2ff" stroke-opacity="0.14" stroke-width="0.8"/><line x1="347.6" y1="329.9" x2="361.4" y2="169.9" stroke="#4cc2ff" stroke-opacity="0.14" stroke-width="0.8"/><line x1="361.4" y1="169.9" x2="124.6" y2="91.7" stroke="#f7931a" stroke-opacity="0.14" stroke-width="0.8"/><circle cx="182" cy="280.8" r="6.5" fill="#f7931a" opacity="0.12"/><circle cx="182" cy="280.8" r="2.7" fill="#f7931a" opacity="0.9"/><circle cx="304.3" cy="210.1" r="6.7" fill="#4cc2ff" opacity="0.12"/><circle cx="304.3" cy="210.1" r="2.8" fill="#4cc2ff" opacity="0.9"/><circle cx="349.3" cy="190.6" r="10.1" fill="#4cc2ff" opacity="0.12"/><circle cx="349.3" cy="190.6" r="4.2" fill="#4cc2ff" opacity="0.9"/><circle cx="245.7" cy="380.1" r="6.2" fill="#f7931a" opacity="0.12"/><circle cx="245.7" cy="380.1" r="2.6" fill="#f7931a" opacity="0.9"/><circle cx="347.6" cy="329.9" r="7.7" fill="#4cc2ff" opacity="0.12"/><circle cx="347.6" cy="329.9" r="3.2" fill="#4cc2ff" opacity="0.9"/><circle cx="361.4" cy="169.9" r="6.7" fill="#f7931a" opacity="0.12"/><circle cx="361.4" cy="169.9" r="2.8" fill="#f7931a" opacity="0.9"/><circle cx="124.6" cy="91.7" r="5" fill="#4cc2ff" opacity="0.12"/><circle cx="124.6" cy="91.7" r="2.1" fill="#4cc2ff" opacity="0.9"/><circle cx="389.2" cy="354.3" r="6.7" fill="#f7931a" opacity="0.12"/><circle cx="389.2" cy="354.3" r="2.8" fill="#f7931a" opacity="0.9"/><circle cx="240" cy="240" r="73.6" fill="url(#g)"/><circle cx="240" cy="240" r="28.3" fill="#f7931a"/><circle cx="240" cy="240" r="12.7" fill="#0b0d13" opacity="0.55"/></svg>